<svg xmlns="http://www.w3.org/2000/svg" viewBox="0 0 100 98.08"><defs><style>.cls-1{fill:#f54433;}</style></defs><title>icon</title><g id="Calque_2" data-name="Calque 2"><g id="Calque_1-2" data-name="Calque 1"><g id="Musique"><path class="cls-1" d="M99.7,57l-7.55-33.1a11.86,11.86,0,0,0-6.41-8L55.14,1.17a11.86,11.86,0,0,0-10.29,0L14.27,15.9a11.86,11.86,0,0,0-6.41,8L.3,57a11.86,11.86,0,0,0,2.29,10L23.75,93.62A11.86,11.86,0,0,0,33,98.08H67a11.86,11.86,0,0,0,9.27-4.46L97.41,67.08A11.86,11.86,0,0,0,99.7,57ZM72.67,61c.37,3.78-3.26,7.22-8.1,7.69s-9.06-2.21-9.42-6,3.26-7.22,8.1-7.69a10.73,10.73,0,0,1,4.3.44V36.83l-22.7,3.31v23.2h0c0,.06,0,.12,0,.19.37,3.78-3.26,7.22-8.1,7.69s-9.06-2.21-9.42-6,3.26-7.22,8.1-7.69a10.74,10.74,0,0,1,4.3.44V31.23h0l32.93-4.41h.05v34h0C72.65,60.83,72.67,60.89,72.67,61Z"/></g></g></g></svg>